HIERARCHY
ROOT hip
{
  OFFSET 0 0 0
  CHANNELS 6 Xposition Yposition Zposition Zrotation Yrotation Xrotation
  JOINT abdomen
  {
    OFFSET 0 20.6881 -0.73152
    CHANNELS 3 Zrotation Xrotation Yrotation
    JOINT chest
    {
      OFFSET 0 11.7043 -0.48768
      CHANNELS 3 Zrotation Xrotation Yrotation
      JOINT neck
      {
        OFFSET 0 22.1894 -2.19456
        CHANNELS 3 Zrotation Xrotation Yrotation
        JOINT head
        {
          OFFSET -0.24384 7.07133 1.2192
          CHANNELS 3 Zrotation Xrotation Yrotation
          JOINT leftEye
          {
            OFFSET 4.14528 8.04674 8.04672
            CHANNELS 3 Zrotation Xrotation Yrotation
            End Site
            {
              OFFSET 1 0 0
            }
          }
          JOINT rightEye
          {
            OFFSET -3.6576 8.04674 8.04672
            CHANNELS 3 Zrotation Xrotation Yrotation
            End Site
            {
              OFFSET 1 0 0
            }
          }
        }
      }
      JOINT rCollar
      {
        OFFSET -2.68224 19.2634 -4.8768
        CHANNELS 3 Zrotation Xrotation Yrotation
        JOINT rShldr
        {
          OFFSET -8.77824 -1.95073 1.46304
          CHANNELS 3 Zrotation Xrotation Yrotation
          JOINT rForeArm
          {
            OFFSET -28.1742 -1.7115 0.48768
            CHANNELS 3 Zrotation Xrotation Yrotation
            JOINT rHand
            {
              OFFSET -22.5879 0.773209 7.07136
              CHANNELS 3 Zrotation Xrotation Yrotation
              JOINT rThumb1
              {
                OFFSET -1.2192 -0.487915 3.41376
                CHANNELS 3 Zrotation Xrotation Yrotation
                JOINT rThumb2
                {
                  OFFSET -3.37035 -0.52449 3.41376
                  CHANNELS 3 Zrotation Xrotation Yrotation
                  End Site
                  {
                    OFFSET -1.78271 -1.18214 1.43049
                  }
                }
              }
              JOINT rIndex1
              {
                OFFSET -7.75947 0.938293 5.60832
                CHANNELS 3 Zrotation Xrotation Yrotation
                JOINT rIndex2
                {
                  OFFSET -2.54057 -0.884171 1.56538
                  CHANNELS 3 Zrotation Xrotation Yrotation
                  End Site
                  {
                    OFFSET -1.62519 -0.234802 1.16502
                  }
                }
              }
              JOINT rMid1
              {
                OFFSET -8.24714 1.18213 3.41376
                CHANNELS 3 Zrotation Xrotation Yrotation
                JOINT rMid2
                {
                  OFFSET -3.10165 -0.590103 1.0647
                  CHANNELS 3 Zrotation Xrotation Yrotation
                  End Site
                  {
                    OFFSET -2.48547 -0.328903 0.83742
                  }
                }
              }
              JOINT rRing1
              {
                OFFSET -8.82822 0.546677 1.51678
                CHANNELS 3 Zrotation Xrotation Yrotation
                JOINT rRing2
                {
                  OFFSET -2.60934 -0.819778 -0.0198488
                  CHANNELS 3 Zrotation Xrotation Yrotation
                  End Site
                  {
                    OFFSET -2.33842 -0.294052 0.168128
                  }
                }
              }
              JOINT rPinky1
              {
                OFFSET -8.27202 -0.0477905 -0.4584
                CHANNELS 3 Zrotation Xrotation Yrotation
                JOINT rPinky2
                {
                  OFFSET -1.82734 -0.647385 -0.700984
                  CHANNELS 3 Zrotation Xrotation Yrotation
                  End Site
                  {
                    OFFSET -1.69225 -0.51767 -0.607171
                  }
                }
              }
            }
          }
        }
      }
      JOINT lCollar
      {
        OFFSET 2.68224 19.2634 -4.8768
        CHANNELS 3 Zrotation Xrotation Yrotation
        JOINT lShldr
        {
          OFFSET 8.77824 -1.95073 1.46304
          CHANNELS 3 Zrotation Xrotation Yrotation
          JOINT lForeArm
          {
            OFFSET 28.1742 -1.7115 0.48768
            CHANNELS 3 Zrotation Xrotation Yrotation
            JOINT lHand
            {
              OFFSET 22.5879 0.773209 7.07136
              CHANNELS 3 Zrotation Xrotation Yrotation
              JOINT lThumb1
              {
                OFFSET 1.2192 -0.487915 3.41376
                CHANNELS 3 Zrotation Xrotation Yrotation
                JOINT lThumb2
                {
                  OFFSET 3.37035 -0.52449 3.41376
                  CHANNELS 3 Zrotation Xrotation Yrotation
                  End Site
                  {
                    OFFSET 1.78271 -1.18214 1.43049
                  }
                }
              }
              JOINT lIndex1
              {
                OFFSET 7.75947 0.938293 5.60832
                CHANNELS 3 Zrotation Xrotation Yrotation
                JOINT lIndex2
                {
                  OFFSET 2.54057 -0.884171 1.56538
                  CHANNELS 3 Zrotation Xrotation Yrotation
                  End Site
                  {
                    OFFSET 1.62519 -0.234802 1.16502
                  }
                }
              }
              JOINT lMid1
              {
                OFFSET 8.24714 1.18213 3.41376
                CHANNELS 3 Zrotation Xrotation Yrotation
                JOINT lMid2
                {
                  OFFSET 3.10165 -0.590103 1.0647
                  CHANNELS 3 Zrotation Xrotation Yrotation
                  End Site
                  {
                    OFFSET 2.48547 -0.328903 0.83742
                  }
                }
              }
              JOINT lRing1
              {
                OFFSET 8.82822 0.546677 1.51678
                CHANNELS 3 Zrotation Xrotation Yrotation
                JOINT lRing2
                {
                  OFFSET 2.60934 -0.819778 -0.0198488
                  CHANNELS 3 Zrotation Xrotation Yrotation
                  End Site
                  {
                    OFFSET 2.33842 -0.294052 0.168128
                  }
                }
              }
              JOINT lPinky1
              {
                OFFSET 8.27202 -0.0477905 -0.4584
                CHANNELS 3 Zrotation Xrotation Yrotation
                JOINT lPinky2
                {
                  OFFSET 1.82734 -0.647385 -0.700984
                  CHANNELS 3 Zrotation Xrotation Yrotation
                  End Site
                  {
                    OFFSET 1.69225 -0.51767 -0.607171
                  }
                }
              }
            }
          }
        }
      }
    }
  }
  JOINT rButtock
  {
    OFFSET -8.77824 4.35084 1.2192
    CHANNELS 3 Zrotation Xrotation Yrotation
    JOINT rThigh
    {
      OFFSET 0 -1.70687 -2.19456
      CHANNELS 3 Zrotation Xrotation Yrotation
      JOINT rShin
      {
        OFFSET 0 -36.8199 0.73152
        CHANNELS 3 Zrotation Xrotation Yrotation
        JOINT rFoot
        {
          OFFSET 0.73152 -45.1104 -5.12064
          CHANNELS 3 Zrotation Xrotation Yrotation
          End Site
          {
            OFFSET -1.1221 -3.69964 12.103
          }
        }
      }
    }
  }
  JOINT lButtock
  {
    OFFSET 8.77824 4.35084 1.2192
    CHANNELS 3 Zrotation Xrotation Yrotation
    JOINT lThigh
    {
      OFFSET 0 -1.70687 -2.19456
      CHANNELS 3 Zrotation Xrotation Yrotation
      JOINT lShin
      {
        OFFSET 0 -36.8199 0.73152
        CHANNELS 3 Zrotation Xrotation Yrotation
        JOINT lFoot
        {
          OFFSET -0.73152 -45.1104 -5.12064
          CHANNELS 3 Zrotation Xrotation Yrotation
          End Site
          {
            OFFSET 1.1221 -3.69964 12.103
          }
        }
      }
    }
  }
}
MOTION
Frames:	4
Frame Time:	0.03333
10.501020005998294 66.95040216905709 24.564999963706587 0.8579910397529602 -14.323599815368652 7.50100564956665 -8.695019721984863 13.312201499938965 -0.7821520566940308 6.887879371643066 -8.9085693359375 -0.19525697827339172 -0.24350403249263763 9.337740898132324 3.842090368270874 2.151479959487915 -27.594100952148438 8.281389236450195 -0.0 0.0 -0.0 -0.0 0.0 -0.0 2.4928301610438464e-13 4.464889749580035e-18 -1.0367599790825355e-12 89.76639556884766 50.72700881958008 -24.326997756958008 -28.419696807861328 -34.78600311279297 74.99169921875 -6.045720100402832 -55.00910568237305 -11.582597732543945 4.67447991425729e-09 -9.43814004727983e-09 1.208749988990121e-09 7.994709783076814e-09 -1.5871400194100715e-08 2.2703099400445126e-09 4.674489684219907e-09 -9.438149817242447e-09 1.2087298939533753e-09 7.730909824371338 5.474879741668701 0.4173140823841095 4.67447991425729e-09 -9.438149817242447e-09 1.208749988990121e-09 2.9055399894714355 0.9651829600334167 0.10290199518203735 4.674489684219907e-09 -9.438149817242447e-09 1.208749988990121e-09 10.27859878540039 0.73180091381073 0.025912316516041756 4.67447991425729e-09 -9.438149817242447e-09 1.2087598699750401e-09 2.221669912338257 -0.733487069606781 -0.208919957280159 2.492359888351531e-13 -4.659019526769186e-18 -1.0370599778236622e-12 -13.343297958374023 -26.903200149536133 -89.73570251464844 27.734498977661133 -29.212905883789062 -65.9939956665039 1.2350999116897583 -29.86530113220215 4.628889560699463 -1.2325699350057562e-09 -1.9990000765801597e-09 -7.317049188770852e-09 -1.9755699298684704e-09 -3.4384597391579064e-09 -1.2638799340436435e-08 -1.2325699350057562e-09 -1.998989862528333e-09 -7.317039862897445e-09 -7.730909824371338 5.474879741668701 -0.4173140823841095 -1.2325699350057562e-09 -1.9990000765801597e-09 -7.317049188770852e-09 -2.9055399894714355 0.9651829600334167 -0.10290199518203735 -1.2325799270129778e-09 -1.9990000765801597e-09 -7.317049188770852e-09 -10.27859878540039 0.73180091381073 -0.025912316516041756 -1.2325599429985346e-09 -1.9990000765801597e-09 -7.317059846911889e-09 -2.221669912338257 -0.733487069606781 0.208919957280159 -2.0321699480147914e-16 0.0 -3.8825099822884138e-19 -20.671600341796875 -42.15840530395508 -12.40530014038086 -171.20999145507812 81.74451446533203 171.31300354003906 -0.6310600638389587 7.4286603927612305 -1.8007599115371704 2.0321699480147914e-16 0.0 3.8825099822884138e-19 15.876699447631836 -57.272708892822266 29.9862003326416 4.59153938293457 78.74201202392578 -4.6708292961120605 9.484369277954102 -10.568700790405273 26.554494857788086
10.665920009149868 67.01459911706604 26.33299997989309 1.0460125207901 -12.749598503112793 7.116001605987549 -9.218110084533691 13.564499855041504 -1.062809944152832 6.973189830780029 -9.031909942626953 -0.22093400359153748 -0.45667192339897156 9.359030723571777 3.3726792335510254 2.5532500743865967 -27.74449920654297 7.4689507484436035 -0.0 0.0 -0.0 -0.0 0.0 -0.0 1.0934099627232449e-13 8.955530273521001e-14 -4.308939815199364e-13 88.57628631591797 52.459896087646484 -20.41900062561035 -28.336898803710938 -33.24039840698242 72.42320251464844 -5.040189743041992 -51.92950439453125 -10.332898139953613 4.193269731445071e-09 -9.074019757804308e-09 1.0221700152968083e-09 7.172209492978254e-09 -1.5297699107463814e-08 1.932930038250902e-09 4.193269731445071e-09 -9.074030415945344e-09 1.0221499202600626e-09 7.730909824371338 5.474879741668701 0.4173140823841095 4.193269731445071e-09 -9.074030415945344e-09 1.0221700152968083e-09 2.9055399894714355 0.9651829600334167 0.10290199518203735 4.193269731445071e-09 -9.074030415945344e-09 1.0221700152968083e-09 10.27859878540039 0.73180091381073 0.025912316516041756 4.193259961482454e-09 -9.074030415945344e-09 1.0221798962817275e-09 2.221669912338257 -0.733487069606781 -0.208919957280159 1.0927999634759503e-13 8.95491973217262e-14 -4.3112095924474625e-13 -13.422599792480469 -25.505002975463867 -90.76840209960938 27.696699142456055 -29.03569984436035 -65.71129608154297 1.255920171737671 -30.069698333740234 4.668109893798828 1.3344998717190748e-10 -1.040859953782558e-09 -1.4771101009003473e-09 2.528429687842504e-10 -1.7942199947995618e-09 -2.5355300081741916e-09 1.334470034475288e-10 -1.040859953782558e-09 -1.4770998868485208e-09 -7.730909824371338 5.474879741668701 -0.4173140823841095 1.3345100025041745e-10 -1.040859953782558e-09 -1.4771101009003473e-09 -2.9055399894714355 0.9651829600334167 -0.10290199518203735 1.3344099436540802e-10 -1.040859953782558e-09 -1.4770998868485208e-09 -10.27859878540039 0.73180091381073 -0.025912316516041756 1.334549970533061e-10 -1.040859953782558e-09 -1.4771199818852665e-09 -2.221669912338257 -0.733487069606781 0.208919957280159 -2.0321699480147914e-16 0.0 -3.8825099822884138e-19 -20.993696212768555 -48.1234016418457 -16.676597595214844 -173.18600463867188 78.99351501464844 173.34300231933594 -1.0274500846862793 5.3900604248046875 -4.901630401611328 2.0321699480147914e-16 0.0 3.8825099822884138e-19 12.628799438476562 -55.959999084472656 27.213096618652344 4.409870147705078 78.56619262695312 -4.650060653686523 10.059799194335938 -11.487099647521973 26.76180076599121
10.80068001500019 67.01750194746329 28.243000055810977 1.3379894495010376 -11.010499000549316 6.770995140075684 -9.46393871307373 13.663899421691895 -1.3318499326705933 7.052099704742432 -9.13755989074707 -0.22986212372779846 -0.7510789036750793 9.430729866027832 2.799570083618164 3.021470308303833 -27.773500442504883 6.465139865875244 -0.0 0.0 -0.0 -0.0 0.0 -0.0 -7.547889586565978e-14 1.6697899302402924e-13 3.022020025715555e-13 86.86909484863281 54.4036979675293 -16.122600555419922 -28.160598754882812 -31.674997329711914 69.93049621582031 -4.079500198364258 -48.31420135498047 -9.080288887023926 2.4582198498990238e-09 -6.530349594413565e-09 7.931729717469693e-10 4.197729719379595e-09 -1.108030023289075e-08 1.4662199232517992e-09 2.4582198498990238e-09 -6.530349594413565e-09 7.931509893310817e-10 7.730909824371338 5.474879741668701 0.4173140823841095 2.4582198498990238e-09 -6.530349594413565e-09 7.931759693491358e-10 2.9055399894714355 0.9651829600334167 0.10290199518203735 2.4582198498990238e-09 -6.530349594413565e-09 7.931770240610092e-10 10.27859878540039 0.73180091381073 0.025912316516041756 2.458209857891802e-09 -6.530349594413565e-09 7.931790224624535e-10 2.221669912338257 -0.733487069606781 -0.208919957280159 -7.555270292855173e-14 1.6697899302402924e-13 3.0205300608800167e-13 -13.56679916381836 -23.67340087890625 -92.13579559326172 27.675098419189453 -28.936704635620117 -65.55439758300781 1.263649821281433 -30.168697357177734 4.68595027923584 1.527269977152912e-09 2.95877988776283e-10 5.194909835637418e-09 2.514290109445483e-09 5.019619719881518e-10 9.001989376145048e-09 1.5272598741233878e-09 2.958789879770052e-10 5.1949200496892445e-09 -7.730909824371338 5.474879741668701 -0.4173140823841095 1.527269977152912e-09 2.95877988776283e-10 5.1949200496892445e-09 -2.9055399894714355 0.9651829600334167 -0.10290199518203735 1.5272598741233878e-09 2.9587696181998524e-10 5.1949200496892445e-09 -10.27859878540039 0.73180091381073 -0.025912316516041756 1.5272799691601335e-09 2.95877988776283e-10 5.194900065674801e-09 -2.221669912338257 -0.733487069606781 0.208919957280159 -2.0321699480147914e-16 0.0 -3.8825099822884138e-19 -21.408998489379883 -53.60710144042969 -20.831998825073242 -173.72801208496094 77.91130065917969 173.98898315429688 -1.5013298988342285 3.167299747467041 -6.840729713439941 2.0321699480147914e-16 0.0 3.8825099822884138e-19 9.95907974243164 -54.47451400756836 24.729795455932617 4.244729518890381 78.45001220703125 -4.684239387512207 10.68120002746582 -12.49260139465332 26.945096969604492
10.879430015057174 67.02810240105515 30.278000064059505 2.0130035877227783 -9.02079963684082 6.146005153656006 -10.350099563598633 13.950600624084473 -1.5657601356506348 7.328909873962402 -9.360029220581055 -0.2349979132413864 -1.1685500144958496 9.43474006652832 2.1317899227142334 3.6221299171447754 -27.345003128051758 5.301650524139404 -0.0 0.0 -0.0 -0.0 0.0 -0.0 -8.385769834605428e-14 1.9540600149255127e-13 2.0904698599336774e-13 84.59928894042969 56.60820770263672 -11.553801536560059 -27.936100006103516 -30.242198944091797 67.61979675292969 -3.2562003135681152 -44.523704528808594 -7.944350719451904 2.4201998183315254e-09 -7.89073073548252e-09 1.549099959419209e-09 4.114499851937126e-09 -1.3441700197347473e-08 2.75861999909921e-09 2.4201998183315254e-09 -7.890719189163065e-09 1.5490799754047657e-09 7.730909824371338 5.474879741668701 0.4173140823841095 2.4201998183315254e-09 -7.89073073548252e-09 1.549099959419209e-09 2.9055399894714355 0.9651829600334167 0.10290199518203735 2.4201998183315254e-09 -7.89073073548252e-09 1.549110062448733e-09 10.27859878540039 0.73180091381073 0.025912316516041756 2.4201900483689087e-09 -7.89073073548252e-09 1.549110062448733e-09 2.221669912338257 -0.733487069606781 -0.208919957280159 -8.385379521823333e-14 1.9540499860554172e-13 2.0890399327934406e-13 -13.754798889160156 -21.103700637817383 -93.5374984741211 27.694398880004883 -29.032297134399414 -65.72249603271484 1.3848001956939697 -31.428503036499023 4.925610065460205 1.358289924979772e-09 7.025909715130396e-11 3.5613998417005632e-09 2.258629949736246e-09 1.1402000177351823e-10 6.179519562721225e-09 1.358289924979772e-09 7.025659914949856e-11 3.561409833707785e-09 -7.730909824371338 5.474879741668701 -0.4173140823841095 1.358289924979772e-09 7.025750120570606e-11 3.5613998417005632e-09 -2.9055399894714355 0.9651829600334167 -0.10290199518203735 1.358289924979772e-09 7.02580979505818e-11 3.5613998417005632e-09 -10.27859878540039 0.73180091381073 -0.025912316516041756 1.3582999169869936e-09 7.026109555274829e-11 3.5613898496933416e-09 -2.221669912338257 -0.733487069606781 0.208919957280159 -2.0321699480147914e-16 0.0 -3.8825099822884138e-19 -22.61049461364746 -58.4390983581543 -24.337295532226562 -173.59999084472656 78.34722137451172 173.98098754882812 -1.6315399408340454 0.9374830722808838 -6.669369697570801 2.0321699480147914e-16 0.0 3.8825099822884138e-19 6.82142972946167 -52.565406799316406 22.08890151977539 4.015338897705078 78.2260971069336 -4.683679103851318 11.291598320007324 -13.461603164672852 27.166200637817383
